# xmcd
#
# Track frame offsets:
#	150
#	22046
#	42805
#	64043
#	84822
#	105996
#	128047
#	145638
#	166102
#	185989
#	205264
#	223919
#	246653
#	266430
#	287581
#	308829
#
# Disc length: 4339 seconds
#
# Revision: 1
# Processed by: cddbd v1.5.2PL0 Copyright (c) Steve Scherf et al.
# Submitted via: audiograbber 1.83.01
#
DISCID=e410f110
DTITLE=Eddy Herrera - 16 super exitos
DYEAR=2006
DGENRE=Merengue
TTITLE0=Carolina
TTITLE1=Lluvia de amor
TTITLE2=La bailadora
TTITLE3=Amame
TTITLE4=Amantes prohibidos
TTITLE5=Tu eres ajena
TTITLE6=El idiota
TTITLE7=Demasiado niña
TTITLE8=Culpables
TTITLE9=Como llora mi alma
TTITLE10=Como hago
TTITLE11=Pegame tu vicio
TTITLE12=La ultima vez
TTITLE13=Demasiado romantico
TTITLE14=Para siempre
TTITLE15=Sin tu amor no vuelve
EXTD=
EXTT0=
EXTT1=
EXTT2=
EXTT3=
EXTT4=
EXTT5=
EXTT6=
EXTT7=
EXTT8=
EXTT9=
EXTT10=
EXTT11=
EXTT12=
EXTT13=
EXTT14=
EXTT15=
PLAYORDER=
